<svg xmlns="http://www.w3.org/2000/svg" width="40" height="60" viewBox="0 0 333333 273016">
    <path d="M62076 60942h210382v150449h-86097c-19212-58946-65556-105635-124284-125314V60943zM869 226187c24953 0 45208 20113 45441 45013H0v-45002l869-11zm0-121529c46105 0 87853 18691 118069 48907 30122 30122 48788 71700 48905 117635h-33401c-117-36716-15043-69945-39119-94021-24171-24171-57568-39123-94455-39123l-869 6v-33399l869-6zm0 59936c29555 0 56316 11981 75688 31352 19274 19274 31231 45870 31348 75254H74508c-115-20165-8337-38411-21565-51640-13324-13324-31737-21567-52074-21567l-869 6v-33399l869-6zM33611 0h263434c9999 0 19078 4084 25640 10646 6714 6714 10648 16149 10648 25642v200153c0 9939-4086 18992-10650 25561l-78 78c-6568 6564-15622 10650-25560 10650H195952c11-608 27 189 32 278 6 87-155-525 15-3937l1424-28402h103849V32060H32590v44314c-8624-1681-27883-452-32060-401V36288c0-9914 4074-18960 10644-25566C18109 3889 23827 0 33610 0z" fill="#ffffff" />
</svg>